# xmcd
#
# Track frame offsets: 
#        182
#        14237
#        32332
#        47600
#        62327
#        71092
#        97995
#        123580
#        140662
#        157020
#        172890
#        182955
#        197545
#        210932
#        224292
#        238085
#        264080
#        277950
#        297257
#        309582
#
# Disc length: 4362 seconds
#
# Revision: 6
# Processed by: cddbd v1.5.2PL0 Copyright (c) Steve Scherf et al.
# Submitted via: ExactAudioCopy v0.95a4
#
DISCID=21110814
DTITLE=Various Artist - Nothing But The Blues [CD 2)
DYEAR=1996
DGENRE=Blues
TTITLE0=Muddy Waters - I Got My Mojo Working (Live)
TTITLE1=Roy Gaines - A Hell Of A Night
TTITLE2=Jimmy Reed - Down At The Corner Grocery Store
TTITLE3=Todd Sharpville - Touch Of Your Love
TTITLE4=Earl Hooker - The Foxtrot
TTITLE5=Bo Diddley - Don't Know Where I've Been
TTITLE6=The Mighty Houserockers - Play The Blues For You
TTITLE7=John Lee Hooker - Goin' Mad Blues
TTITLE8=Little Walter - Juke
TTITLE9=Isaac Scott - Don't Let My Baby Ride
TTITLE10=Paul Lamb - Whoopin'
TTITLE11=Billy Boy Arnold - I Wish You Would
TTITLE12=Troyce Key and J.J. Malone - Gimme Mine Out Now
TTITLE13=Mississippi Fred McDowell - I Asked For Whiskey
TTITLE14=J.B. Hutto - Speak My Mind
TTITLE15=Charlie Musselwhite and The Dynatones - She Used To Be Beautifu
TTITLE15=l
TTITLE16=Lightinin' Hopkins - Got Me A Louisiana Woman
TTITLE17=Sonny Boy Williamson - Don't Start Me To Talkin'
TTITLE18=The Aces - Take A Little Walk With Me
TTITLE19=Big Twist and The  Mellow Fellows - Livin' It Up
EXTD=Year: 1996   [CD 2 from 2)
EXTT0=
EXTT1=
EXTT2=
EXTT3=
EXTT4=
EXTT5=
EXTT6=
EXTT7=
EXTT8=
EXTT9=
EXTT10=
EXTT11=
EXTT12=
EXTT13=
EXTT14=
EXTT15=
EXTT16=
EXTT17=
EXTT18=
EXTT19=
PLAYORDER=
